<mxfile host="app.diagrams.net" modified="2023-08-19T15:53:12.229Z" agent="Mozilla/5.0 (Windows NT 10.0; Win64; x64) AppleWebKit/537.36 (KHTML, like Gecko) Chrome/116.0.0.0 Safari/537.36" version="21.6.6" etag="BR7Zec9vxYvd1mPG1pz2" type="github">
  <diagram name="PÃ¡gina-1" id="-tY1Q8HmKUWvpKC0TdFC">
    <mxGraphModel>
      <root>
        <mxCell id="0" />
        <mxCell id="1" parent="0" />
      </root>
    </mxGraphModel>
  </diagram>
</mxfile>
